<svg width="150" height="150" viewBox="0 0 150 150" fill="none" xmlns="http://www.w3.org/2000/svg">
<g clip-path="url(#clip0)">
<path d="M75 150C116.421 150 150 116.421 150 75C150 33.5786 116.421 0 75 0C33.5786 0 0 33.5786 0 75C0 116.421 33.5786 150 75 150Z" fill="#68A691"/>
<path d="M41.1332 188.809H30.3514V179.888C30.3514 167.961 33.8332 157.658 40.4211 150.088C46.8635 142.685 55.7756 138.609 65.515 138.609V149.394C51.1605 149.394 41.1332 161.933 41.1332 179.888V188.809Z" fill="#333333"/>
<path d="M108.866 188.809H119.648V179.888C119.648 167.961 116.166 157.658 109.579 150.088C103.136 142.685 94.224 138.609 84.4846 138.609V149.394C98.8392 149.394 108.866 161.933 108.866 179.888V188.809Z" fill="#333333"/>
<path d="M95.6575 144.642V182.685H54.3423V144.642C54.3423 139.867 61.2848 136 66.0575 136H83.9363C88.7151 136 95.6575 139.867 95.6575 144.642Z" fill="#333333"/>
<path d="M63.8544 139.309H86.1423C88.4702 139.309 90.3574 137.422 90.3574 135.094V135.091C90.3574 132.763 88.4702 130.876 86.1423 130.876H63.8544C61.5264 130.876 59.6392 132.763 59.6392 135.091V135.094C59.6392 137.422 61.5264 139.309 63.8544 139.309Z" fill="#333333"/>
<path d="M100.951 87.9062C104.654 88.5451 108.459 87.6926 111.534 85.5349C114.61 83.3773 116.707 80.0899 117.367 76.3911L119.857 62.2214C120.497 58.5189 119.645 54.7136 117.487 51.6376C115.329 48.5616 112.041 46.465 108.342 45.8062C104.64 45.1665 100.835 46.0187 97.7585 48.1765C94.6825 50.3343 92.586 53.6222 91.9271 57.3214L89.4362 71.4911C88.7965 75.1936 89.6487 78.9988 91.8065 82.0748C93.9643 85.1508 97.2522 87.2474 100.951 87.9062Z" fill="#333333"/>
<path d="M52.6848 88.1001C56.4172 87.6794 59.8316 85.7988 62.1821 82.8691C64.5327 79.9394 65.6285 76.1986 65.2302 72.4637L63.6605 58.1637C63.239 54.4316 61.3583 51.0177 58.4288 48.6673C55.4993 46.3169 51.7589 45.2208 48.0242 45.6182C44.292 46.0397 40.8782 47.9205 38.5278 50.85C36.1773 53.7795 35.0812 57.5198 35.4787 61.2546L37.0484 75.5546C37.4676 79.2877 39.3477 82.703 42.2778 85.0539C45.2079 87.4048 48.9495 88.5 52.6848 88.1001Z" fill="#333333"/>
<path d="M87.4118 96.085H87.4149C103.602 96.085 116.724 82.9628 116.724 66.7759V43.6153C116.724 27.4283 103.602 14.3062 87.4149 14.3062H87.4118C71.2249 14.3062 58.1027 27.4283 58.1027 43.6153V66.7759C58.1027 82.9628 71.2249 96.085 87.4118 96.085Z" fill="#333333"/>
<path d="M74.9998 127.739C94.9574 127.739 111.285 111.412 111.285 91.4576V74.1849C111.285 54.2273 94.9574 39.2637 74.9998 39.2637C55.0422 39.2637 38.715 54.2273 38.715 74.1849V91.4576C38.715 111.412 55.0422 127.739 74.9998 127.739Z" fill="#FFDAB9"/>
<path d="M117.701 98.452C121.76 94.908 122.178 88.744 118.634 84.6843C115.09 80.6246 108.926 80.2065 104.867 83.7505C100.807 87.2945 100.389 93.4585 103.933 97.5182C107.477 101.578 113.641 101.996 117.701 98.452Z" fill="#FFDAB9"/>
<path d="M47.5852 95.183C49.8328 90.2851 47.6844 84.4925 42.7865 82.2449C37.8886 79.9973 32.096 82.1458 29.8484 87.0437C27.6008 91.9416 29.7493 97.7341 34.6472 99.9817C39.5451 102.229 45.3376 100.081 47.5852 95.183Z" fill="#FFDAB9"/>
<path d="M72.3484 72.4242C57.8363 72.4242 44.7515 66.1515 35.3788 54.6606C33.9515 52.9114 32.8828 50.8983 32.2336 48.7361C31.5844 46.5739 31.3674 44.305 31.595 42.0589C31.8227 39.8129 32.4905 37.6336 33.5603 35.6457C34.6302 33.6577 36.0811 31.8999 37.8303 30.4727C39.5794 29.0455 41.5926 27.9767 43.7548 27.3275C45.917 26.6783 48.1859 26.4613 50.4319 26.689C52.678 26.9166 54.8572 27.5844 56.8452 28.6543C58.8331 29.7241 60.5909 31.1751 62.0181 32.9242C64.9181 36.4788 68.4333 38.1697 72.7878 38.0333C78.4181 37.8848 82.8575 34.8606 83.7606 33.6242C85.0852 31.782 86.7613 30.2203 88.6924 29.0291C90.6235 27.8378 92.7713 27.0407 95.012 26.6835C97.2527 26.3264 99.5419 26.4163 101.748 26.9482C103.953 27.4801 106.032 28.4433 107.864 29.7824C109.695 31.1215 111.244 32.81 112.42 34.7504C113.596 36.6909 114.376 38.8449 114.715 41.0883C115.055 43.3318 114.947 45.6202 114.398 47.8217C113.848 50.0231 112.869 52.0941 111.515 53.9151C103.597 64.7515 88.7545 72.0091 73.6969 72.4C73.2484 72.4242 72.7969 72.4242 72.3484 72.4242Z" fill="#333333"/>
<path d="M96.7914 93.6943C98.7369 91.7488 98.7369 88.5945 96.7914 86.649C94.8459 84.7034 91.6915 84.7034 89.746 86.649C87.8005 88.5945 87.8005 91.7488 89.746 93.6943C91.6915 95.6398 94.8459 95.6398 96.7914 93.6943Z" fill="#333333"/>
<path d="M57.8703 95.0211C60.5481 94.3891 62.2065 91.7059 61.5745 89.0281C60.9425 86.3503 58.2593 84.6919 55.5815 85.3239C52.9037 85.9559 51.2453 88.6391 51.8773 91.3169C52.5093 93.9947 55.1925 95.6531 57.8703 95.0211Z" fill="#333333"/>
<path d="M87.1998 102.991H62.7998C62.7998 102.991 66.721 113.067 74.9998 113.067C83.2786 113.067 87.1998 102.991 87.1998 102.991Z" fill="#EE6352"/>
<path d="M90.9088 81.4213L95.6573 81.7486C96.1752 81.7828 96.6856 81.6108 97.0773 81.2703C97.469 80.9297 97.7101 80.4481 97.7482 79.9304C97.7824 79.4125 97.6104 78.9021 97.2698 78.5104C96.9293 78.1187 96.4477 77.8776 95.93 77.8395L91.1845 77.5092C90.6668 77.4758 90.1568 77.6481 89.7653 77.9885C89.3738 78.3289 89.1325 78.81 89.0936 79.3274C89.0586 79.8453 89.2297 80.3561 89.5698 80.7484C89.9098 81.1406 90.3911 81.3825 90.9088 81.4213Z" fill="#333333"/>
<path d="M59.0908 81.4213L54.3423 81.7486C53.8244 81.7828 53.314 81.6108 52.9223 81.2703C52.5306 80.9297 52.2895 80.4481 52.2514 79.9304C52.2172 79.4125 52.3892 78.9021 52.7297 78.5104C53.0703 78.1187 53.5519 77.8776 54.0696 77.8395L58.815 77.5092C59.3328 77.4758 59.8428 77.6481 60.2342 77.9885C60.6257 78.3289 60.8671 78.81 60.9059 79.3274C60.941 79.8453 60.7698 80.3561 60.4298 80.7484C60.0898 81.1406 59.6085 81.3825 59.0908 81.4213Z" fill="#333333"/>
<path d="M76.7545 142.679H73.2454C71.675 142.679 70.1689 142.055 69.0585 140.945C67.948 139.834 67.3242 138.328 67.3242 136.758V122.746H82.6757V136.749C82.6769 137.527 82.5246 138.298 82.2276 139.017C81.9306 139.737 81.4946 140.391 80.9446 140.941C80.3947 141.492 79.7415 141.929 79.0225 142.227C78.3036 142.525 77.5328 142.679 76.7545 142.679Z" fill="#FFDAB9"/>
<path d="M48.318 196.782V150.194C48.318 135.503 67.3241 134.133 67.3241 134.133L67.1029 196.788L48.318 196.782Z" fill="#68A691"/>
<path d="M101.682 196.782V150.194C101.682 135.503 82.6757 134.133 82.6757 134.133L82.8969 196.788L101.682 196.782Z" fill="#68A691"/>
</g>
<defs>
<clipPath id="clip0">
<rect width="150" height="150" fill="white"/>
</clipPath>
</defs>
</svg>
