<svg width="150" height="150" viewBox="0 0 150 150" fill="none" xmlns="http://www.w3.org/2000/svg">
<g clip-path="url(#clip0)">
<path d="M75 158.864C116.421 158.864 150 125.285 150 83.8638C150 42.4424 116.421 8.86377 75 8.86377C33.5786 8.86377 0 42.4424 0 83.8638C0 125.285 33.5786 158.864 75 158.864Z" fill="#68A691"/>
<path d="M78.5149 36.7668L71.8756 36.8395C67.0056 36.876 62.3188 34.9847 58.8382 31.5784C55.3575 28.1721 53.3654 23.5273 53.2968 18.6577C53.2587 13.7859 55.1502 9.09703 58.558 5.61535C61.9659 2.13367 66.6132 0.142158 71.4846 0.0758533L78.124 0.00615648C82.9943 -0.0311346 87.6814 1.85988 91.1623 5.26635C94.6431 8.67283 96.6349 13.3181 96.7028 18.188C96.7417 23.0597 94.8504 27.7487 91.4422 31.2301C88.0341 34.7114 83.3864 36.702 78.5149 36.7668Z" fill="#333333"/>
<path d="M75 107.746C97.0144 107.746 114.861 90.4638 114.861 69.1457C114.861 47.8275 97.0144 30.5457 75 30.5457C52.9856 30.5457 35.1394 47.8275 35.1394 69.1457C35.1394 90.4638 52.9856 107.746 75 107.746Z" fill="#333333"/>
<path d="M40.3788 89.0272C40.3788 108.148 55.8792 123.648 75 123.648C94.1208 123.648 109.621 108.148 109.621 89.0272V72.5393C109.621 53.4186 94.1208 37.9181 75 37.9181C55.8792 37.9181 40.3788 53.4186 40.3788 72.5393V89.0272Z" fill="#FFDAB9"/>
<path d="M50.403 90.4779C51.3866 85.4316 48.0932 80.5434 43.0469 79.5598C38.0006 78.5761 33.1123 81.8696 32.1287 86.9159C31.1451 91.9622 34.4385 96.8504 39.4848 97.834C44.5311 98.8177 49.4193 95.5242 50.403 90.4779Z" fill="#FFDAB9"/>
<path d="M116.302 94.1056C119.294 89.9247 118.33 84.1098 114.149 81.1177C109.968 78.1256 104.154 79.0893 101.161 83.2702C98.1694 87.451 99.1331 93.2659 103.314 96.2581C107.495 99.2502 113.31 98.2865 116.302 94.1056Z" fill="#FFDAB9"/>
<path d="M62.7138 91.9746C64.5433 90.1974 64.4996 87.1851 62.6163 85.2464C60.733 83.3077 57.7232 83.1768 55.8937 84.954C54.0643 86.7312 54.108 89.7435 55.9913 91.6822C57.8746 93.6209 60.8844 93.7518 62.7138 91.9746Z" fill="#333333"/>
<path d="M66.3636 100.158C66.3636 100.158 69.394 106.282 74.8485 106.197C80.303 106.112 83.6364 100.118 83.6364 100.118L66.3636 100.158Z" fill="#EE6352"/>
<path d="M51.3967 100.018C51.3976 100.644 51.5241 101.263 51.7687 101.839C52.0133 102.415 52.3709 102.936 52.8205 103.371C53.2701 103.806 53.8024 104.147 54.386 104.373C54.9696 104.598 55.5925 104.704 56.2179 104.685C57.4942 104.661 58.7113 104.142 59.6117 103.237C60.5121 102.333 61.0251 101.113 61.0422 99.8365C61.0413 99.2105 60.9147 98.5911 60.67 98.015C60.4252 97.4389 60.0673 96.9178 59.6173 96.4825C59.1674 96.0473 58.6347 95.7069 58.0508 95.4814C57.4669 95.2559 56.8436 95.15 56.2179 95.1698C54.9419 95.1934 53.7252 95.7126 52.8253 96.6175C51.9254 97.5225 51.413 98.7422 51.3967 100.018Z" fill="#FFDAB9"/>
<path d="M55.1877 81.5698L61.0755 81.2455C61.271 81.2354 61.4622 81.1851 61.6373 81.0976C61.8124 81.0102 61.9675 80.8875 62.093 80.7373C62.2185 80.5871 62.3115 80.4126 62.3664 80.2247C62.4213 80.0368 62.4368 79.8397 62.4119 79.6455C62.3628 79.2404 62.1633 78.8686 61.8529 78.6037C61.5425 78.3387 61.1439 78.2001 60.7361 78.2152L54.8483 78.5364C54.6528 78.5465 54.4615 78.5969 54.2865 78.6844C54.1114 78.7718 53.9563 78.8945 53.8308 79.0447C53.7053 79.1949 53.6122 79.3694 53.5574 79.5573C53.5025 79.7451 53.487 79.9423 53.5119 80.1364C53.561 80.5418 53.7604 80.914 54.0707 81.1794C54.381 81.4448 54.7796 81.5841 55.1877 81.5698Z" fill="#333333"/>
<path d="M94.0104 91.6823C95.8937 89.7437 95.9374 86.7313 94.1079 84.9541C92.2785 83.1769 89.2687 83.3079 87.3854 85.2465C85.5021 87.1852 85.4584 90.1975 87.2878 91.9747C89.1173 93.7519 92.1271 93.621 94.0104 91.6823Z" fill="#333333"/>
<path d="M97.9638 102.371C99.2883 100.115 98.4889 97.1867 96.1784 95.8301C93.8678 94.4734 90.921 95.2022 89.5965 97.4579C88.2721 99.7136 89.0714 102.642 91.382 103.999C93.6926 105.355 96.6393 104.627 97.9638 102.371Z" fill="#FFDAB9"/>
<path d="M94.8121 81.5698L88.9243 81.2455C88.7288 81.2354 88.5375 81.1851 88.3625 81.0976C88.1874 81.0102 88.0322 80.8875 87.9068 80.7373C87.7813 80.5871 87.6882 80.4126 87.6334 80.2247C87.5785 80.0368 87.563 79.8397 87.5879 79.6455C87.637 79.2404 87.8365 78.8686 88.1469 78.6037C88.4573 78.3387 88.8559 78.2001 89.2636 78.2152L95.1515 78.5364C95.347 78.5465 95.5382 78.5969 95.7133 78.6844C95.8884 78.7718 96.0435 78.8945 96.169 79.0447C96.2945 79.1949 96.3875 79.3694 96.4424 79.5573C96.4973 79.7451 96.5128 79.9423 96.4879 80.1364C96.4388 80.5418 96.2394 80.914 95.9291 81.1794C95.6188 81.4448 95.2202 81.5841 94.8121 81.5698Z" fill="#333333"/>
<path d="M74.5089 35.4031C40.4635 35.4031 38.7029 64.7516 38.7029 64.7516H111.297C111.297 64.7516 108.554 35.4031 74.5089 35.4031Z" fill="#333333"/>
<path d="M59.5817 39.6002L90.3454 39.8638C91.4926 39.8695 92.5956 39.4212 93.4137 38.6168C94.2317 37.8124 94.6984 36.7171 94.712 35.5699C94.7177 34.4229 94.2693 33.3202 93.4648 32.5027C92.6603 31.6851 91.565 31.219 90.4181 31.2063L59.6545 30.9456C58.5088 30.9383 57.4067 31.3844 56.5886 32.1866C55.7706 32.9887 55.303 34.0819 55.2878 35.2275C55.2789 36.3763 55.7259 37.4817 56.5309 38.3014C57.3358 39.1211 58.4329 39.5882 59.5817 39.6002Z" fill="#333333"/>
<path d="M31.6303 175.943C30.7608 175.942 29.91 175.69 29.1803 175.217C28.4506 174.745 27.873 174.071 27.517 173.278C27.161 172.485 27.0418 171.605 27.1738 170.746C27.3057 169.886 27.6831 169.084 28.2606 168.434L58.603 134.3C59.3975 133.406 60.5146 132.864 61.7085 132.794C62.9025 132.723 64.0756 133.13 64.9697 133.924C65.8638 134.719 66.4057 135.836 66.4762 137.03C66.5466 138.224 66.1399 139.397 65.3455 140.291L35.0061 174.427C34.5827 174.905 34.0628 175.286 33.4809 175.548C32.8989 175.809 32.2682 175.943 31.6303 175.943Z" fill="#333333"/>
<path d="M118.37 175.942C119.239 175.942 120.09 175.69 120.82 175.217C121.549 174.744 122.127 174.071 122.483 173.278C122.839 172.484 122.958 171.605 122.826 170.746C122.694 169.886 122.317 169.083 121.739 168.433L91.3968 134.3C91.0035 133.857 90.5267 133.496 89.9939 133.238C89.4611 132.979 88.8825 132.828 88.2913 132.793C87.7001 132.759 87.1078 132.84 86.5483 133.034C85.9887 133.228 85.4729 133.531 85.0302 133.924C84.5874 134.318 84.2265 134.794 83.9681 135.327C83.7096 135.86 83.5586 136.438 83.5237 137.03C83.4888 137.621 83.5707 138.213 83.7647 138.773C83.9587 139.332 84.261 139.848 84.6544 140.291L114.994 174.427C115.417 174.904 115.937 175.286 116.519 175.547C117.101 175.808 117.732 175.943 118.37 175.942Z" fill="#333333"/>
<path d="M95.4543 147.955C95.3391 136.418 89.4694 127.045 74.9997 127.045C60.53 127.045 54.43 136.418 54.5452 147.955V173.409H95.4543V147.955Z" fill="#333333"/>
<path d="M66.9454 116.455H83.0544V131.164C83.0544 132.812 82.3996 134.393 81.2341 135.558C80.0685 136.724 78.4877 137.379 76.8393 137.379H73.1575C71.5091 137.379 69.9283 136.724 68.7627 135.558C67.5971 134.393 66.9423 132.812 66.9423 131.164V116.455H66.9454Z" fill="#FFDAB9"/>
</g>
<defs>
<clipPath id="clip0">
<rect width="150" height="150" fill="white"/>
</clipPath>
</defs>
</svg>
